<?xml version="1.0" encoding="iso-8859-1"?>
<!-- Generator: Adobe Illustrator 19.0.0, SVG Export Plug-In . SVG Version: 6.00 Build 0)  -->
<svg version="1.1" id="Layer_1" xmlns="http://www.w3.org/2000/svg" xmlns:xlink="http://www.w3.org/1999/xlink" x="0px" y="0px"
	 viewBox="0 0 511.981 511.981" style="enable-background:new 0 0 511.981 511.981;" xml:space="preserve">
<path style="fill:#965353;" d="M479.982,277.441H32c-5.891,0-10.664,4.781-10.664,10.672v191.992
	c0,5.891,4.773,10.672,10.664,10.672h447.982c5.89,0,10.655-4.781,10.655-10.672V288.113
	C490.637,282.222,485.872,277.441,479.982,277.441z"/>
<g>
	<path style="fill:#7F4545;" d="M159.995,288.113v202.664h21.335V288.113c0-5.891-4.781-10.672-10.671-10.672
		C164.768,277.441,159.995,282.222,159.995,288.113z"/>
	<path style="fill:#7F4545;" d="M330.644,288.113v202.664h21.344V288.113c0-5.891-4.781-10.672-10.656-10.672
		C335.426,277.441,330.644,282.222,330.644,288.113z"/>
</g>
<path style="fill:#E2A437;" d="M228.187,161.774c-8.023-7-9.906-26.538-11.727-45.428c-1.953-20.304-4.164-43.311-14.14-61.552
	c-12.046-22.046-33.404-33.257-63.536-33.343c-30.069,0.086-51.428,11.297-63.474,33.343c-9.977,18.242-12.188,41.249-14.14,61.544
	c-1.82,18.897-3.703,38.436-11.727,45.436l-8.789,7.656l8.406,8.07c2.047,1.969,21.921,19.178,89.754,19.178
	s87.708-17.209,89.754-19.178l8.406-8.07L228.187,161.774z"/>
<path style="fill:#EC87C0;" d="M217.601,199.975l-0.781-0.234c-11.406-3.172-15.257-6.226-20.335-8.226
	c-18.007-7.117-22.694-12.249-23.889-14.671c-0.047-0.086-0.078-0.18-0.117-0.266l-0.148-21.695l-33.515-0.5l-33.515,0.5
	l-0.148,21.695c-0.039,0.086-0.07,0.18-0.117,0.266c-1.195,2.422-5.882,7.554-23.889,14.671c-5.078,2-8.929,5.054-20.335,8.226
	l-0.781,0.234c-10.383,3.562-17.367,13.539-17.367,24.812v31.327h96.152h96.152v-31.327
	C234.968,213.514,227.984,203.538,217.601,199.975z"/>
<path style="fill:#EAC6BB;" d="M198.071,112.705c0,39.937-36.702,76.685-59.255,76.685s-59.255-36.748-59.255-76.685
	c0-39.928,26.53-66.278,59.255-66.278S198.071,72.778,198.071,112.705z"/>
<path style="fill:#F6BB42;" d="M146.964,68.856c0,0,30.28,28.17,68.083,33.686c-1.898-16.453-4.961-33.545-12.727-47.748
	c-11.499-21.046-31.498-32.218-59.505-33.257L146.964,68.856z"/>
<path style="fill:#5D9CEC;" d="M461.874,198.468l-0.828-0.242c-12.156-3.257-16.25-6.39-21.656-8.445
	c-19.187-7.312-24.187-12.577-25.452-15.062c-0.047-0.094-0.078-0.188-0.125-0.281l-0.156-22.272l-45.482-0.516l-45.467,0.516
	l-0.156,22.272c-0.062,0.094-0.094,0.188-0.125,0.281c-1.281,2.484-6.281,7.75-25.451,15.062c-5.406,2.055-9.516,5.188-21.656,8.445
	l-0.828,0.242c-11.064,3.656-18.501,13.905-18.501,25.475v32.171h112.183h112.184v-32.171
	C480.357,212.373,472.92,202.124,461.874,198.468z"/>
<path style="fill:#EAC6BB;" d="M431.296,109.065c0,40.999-39.092,78.74-63.122,78.74c-24.014,0-63.106-37.741-63.106-78.74
	c0-41.005,28.265-68.059,63.106-68.059C403.032,41.006,431.296,68.059,431.296,109.065z"/>
<path style="fill:#434A54;" d="M400.751,39.217c0,0-1.234-5.578,11.843-13.43c5.531-3.328-82.918-19.093-105.136,36.804
	c-8.343,21.007-2.172,51.912-2.172,51.912l19.233-34.475c0,0,20.953,4.898,43.654,4.898c22.718,0,44.436-4.898,44.436-4.898
	l18.687,29.131c0,0,7.172-27.967-0.875-46.505C422.39,44.122,400.751,39.217,400.751,39.217z"/>
<path style="fill:#A85D5D;" d="M501.325,234.779H10.664C4.774,234.779,0,239.552,0,245.442v42.671
	c0,5.89,4.773,10.671,10.664,10.671h490.661c5.875,0,10.656-4.781,10.656-10.671v-42.671
	C511.981,239.552,507.2,234.779,501.325,234.779z"/>
<path style="fill:#FFCE54;" d="M186.088,35.506c-12.007-9.281-27.812-14-47.303-14.055c-30.069,0.086-51.428,11.297-63.474,33.343
	c-9.977,18.242-12.188,41.249-14.14,61.544c-0.188,1.922-0.375,3.844-0.562,5.758C123.332,117.33,172.948,53.911,186.088,35.506z"/>
<g>
</g>
<g>
</g>
<g>
</g>
<g>
</g>
<g>
</g>
<g>
</g>
<g>
</g>
<g>
</g>
<g>
</g>
<g>
</g>
<g>
</g>
<g>
</g>
<g>
</g>
<g>
</g>
<g>
</g>
</svg>
