<svg xmlns="http://www.w3.org/2000/svg" xmlns:xlink="http://www.w3.org/1999/xlink" width="111" height="135" viewBox="0 0 111 135"><defs><path id="i" d="M196.295 262c.85 0 1.54.685 1.54 1.53v4.08h6.165l-6.164 9.183v16.677c0 .844-.69 1.53-1.541 1.53h-54.755c-.85 0-1.54-.686-1.54-1.53v-29.94c0-.845.69-1.53 1.54-1.53h54.755"/><path id="W" d="M188.705 300a1.55 1.55 0 0 0-1.54 1.56v4.156h-6.165l6.164 9.355v24.37c0 .86.69 1.559 1.541 1.559h54.755c.85 0 1.54-.698 1.54-1.558v-37.883c0-.862-.69-1.559-1.54-1.559h-54.755"/><path id="a" d="M231 359.014c0 4.392-3.61 7.986-8.025 7.986h-47.95c-4.413 0-8.025-3.594-8.025-7.986v-113.029c0-4.392 3.612-7.985 8.025-7.985h47.95c4.414 0 8.025 3.593 8.025 7.985v113.029"/><path id="b" d="M176.088 365c-4.449 0-8.088-3.578-8.088-7.952v-110.094c0-4.372 3.639-7.954 8.088-7.954h45.824c4.445 0 8.088 3.582 8.088 7.954v110.094c0 4.374-3.643 7.952-8.088 7.952h-45.824"/><path id="c" d="M204 246.5c0 .276-.24.5-.548.5h-7.904c-.303 0-.548-.224-.548-.5 0-.278.245-.5.548-.5h7.904c.307 0 .548.222.548.5"/><path id="d" d="M204 359.25c0 .412-.43.75-.967.75h-7.067c-.533 0-.966-.338-.966-.75v-1.5c0-.415.433-.75.966-.75h7.067c.536 0 .967.335.967.75v1.5"/><path id="e" d="M167 259h1v-5h-1z"/><path id="f" d="M167 271h1v-9h-1z"/><path id="g" d="M167 281h1v-8h-1z"/><path id="h" d="M170 351h56v-99h-56z"/><path id="k" d="M150 276h38v-3h-38z"/><path id="l" d="M150 281h38v-3h-38z"/><path id="m" d="M150 287h38v-3h-38z"/><path id="n" d="M164 368.028l-.134 1.972h-2.491s-.138-.246-.349-.246c-.178 0-.407.246-.649.246h-6.333s-.113-.365.024-.49c.07-.065.487-.177.765-.233 1.286-.257 4.968-1.06 5.608-1.934.778-1.063 3.559.685 3.559.685"/><path id="o" d="M154.018 370c-.05.248.02.653.02.653h5.715c.218 0 .425-.388.585-.388.19 0 .315.388.315.388h2.247l.1-.653h-8.982"/><path id="p" d="M156.751 370.62c-.054.081-.196-.01-.382-.172-.449-.39-.408-.347-.292-.412.081-.045.176-.09.437.144.182.166.292.358.237.44"/><path id="q" d="M156.751 370.619c-.055.082-.197-.01-.382-.171-.449-.39-.408-.347-.292-.412.081-.044.176-.09.436.145.182.165.292.359.238.438"/><path id="r" d="M158.751 368.62c-.054.081-.197-.01-.382-.173-.449-.389-.408-.347-.292-.41.081-.046.177-.09.436.143.183.166.292.358.238.44"/><path id="s" d="M182.896 372.22c.19.188.06.626.06.626s-3.89.276-5.142.089c-.327-.05-.876-.228-1.394-.418l-.326-.255-.373-.013c-.346-.14-.59-.249-.594-.263-.341-1.14.113-1.6.113-1.6s2.493-.703 3.113-.212c1.463 1.154 3.994 1.504 4.543 2.046"/><path id="t" d="M182.998 371.958c-1.202.193-3.723.574-4.189.47-1.9-.43-3.037-1.667-3.809-2.428.018.307.053.648.112 1.032.004.027.247.239.594.51l.373.026.326.494c.519.37 1.068.716 1.394.811 1.253.365 5.145-.173 5.145-.173s.07-.383.054-.742"/><path id="u" d="M179.998 370.206c.025.085-.204.13-.512.119a12.29 12.29 0 0 0-1.892.072c-.315.036-.58.004-.594-.086-.011-.092.231-.206.54-.24.63-.067 1.254-.087 1.87-.058.302.013.565.108.588.193"/><path id="v" d="M178.999 370.16c.02.086-.215.151-.524.16-.624.016-1.257.082-1.89.196-.312.055-.575.038-.585-.055-.007-.093.235-.228.545-.28.625-.108 1.25-.168 1.868-.18.305-.007.565.072.586.158"/><path id="w" d="M179 370.134c.017.088-.223.17-.533.2-.628.057-1.26.163-1.89.316-.312.075-.57.072-.577-.025-.007-.097.238-.248.545-.32.624-.147 1.25-.247 1.872-.3.305-.025.566.04.582.129"/><path id="x" d="M156.532 299.616l.348-2.272.12-1.302-.068-1.751s-.477-.699-.694.962c-.034.25-.352-1.702-.352-1.702l-.362-1.347-.441-.204-.99.691s.091.619.897.308c.086-.034.133 1.126.133 1.126l-1.057 1.72s-.206.898.11 1.292l.317.394.128-.156.077 1.732s.128.681.647.963c.518.28.22.93.22.93l.967-1.384"/><path id="y" d="M159.48 313.18s1.915-4.922 1.446-6.733c-.47-1.809-2.463-8.447-2.463-8.447l-2.463 1.722s1.745 13.054 2.299 13.938c.554.883 1.033-.202 1.18-.48"/><path id="z" d="M156.77 368.84l4.23.16-1.025-49.967-8.975-3.033s1.41 32.566 5.77 52.84"/><path id="A" d="M164.91 319l13.09 50.843-5.319.157-18.681-54 10.91 3"/><path id="B" d="M160.76 319.334l-.78-.571-8.98-2.763s.155 3.273.521 8.382l9.479 5.618-.24-10.666"/><path id="C" d="M165 319l-.046-.124-5.635-1.07-8.319-1.806.09 1.197 13.91 1.803"/><path id="D" d="M171.196 293.129s-5.387-3.794-10.25 2.529c-4.864 6.323-9.946 19.505-9.946 19.505l14.809 4.837 4.815-19.179s2.67-6.427.572-7.692"/><path id="E" d="M171.038 293s1.418-.153.81 4.785c-.607 4.94-2.108 14.56-2.797 16.978-.171.6-.852 3.395-1.947 1.697-1.095-1.697-1.824-8.232.041-16.668 1.196-5.41 3.164-6.791 3.893-6.791"/><path id="F" d="M151.223 301l-.223.224.867 2.335 1.733.441.4-.315-.661-2.096-2.116-.589"/><path id="G" d="M161 306.294l-3.415-1.177-1.35-.117.361.706-1.349.294-1.348-.294-.63-.53-.269.589s.09.294.45.53c.36.234 1.618 1.528 1.618 1.528l.989-.118 2.247-.352 1.438.647 1.258-1.706"/><path id="H" d="M167.997 315.768s-.671-4.835-2.018-5.74c-1.345-.906-6.537-4.028-6.537-4.028l-1.442 3.02s8.172 7.754 9.133 7.956c.96.201.864-.907.864-1.208"/><path id="I" d="M163.884 295l2.116-.917-.884-7.083-2.116.917.884 7.083"/><path id="J" d="M161.022 285.074c.137.611.864 1.018 1.624.908l5.203-.75c.76-.11 1.265-.694 1.129-1.306-.137-.611-.863-1.018-1.624-.908l-5.202.75c-.76.11-1.266.694-1.13 1.306"/><path id="K" d="M162.042 287.119c.256 1.241 1.618 2.067 3.043 1.845l2.755-.43c1.426-.224 2.375-1.411 2.118-2.653-.255-1.241-1.618-2.068-3.044-1.845l-2.755.43c-1.425.223-2.373 1.41-2.117 2.653"/><path id="L" d="M160.2 292l-1.178-8.302c-.187-1.323.85-.192 1.895-.43l1.01-.23c1.046-.237 2.047.644 2.235 1.966l.838 5.908-4.8 1.088"/><path id="M" d="M164.024 287.765a1.5 1.5 0 1 0 2.953-.53 1.5 1.5 0 0 0-2.953.53"/><path id="N" d="M159.994 288.376c.035.259-.092.505-.286.55l-.292.067c-.193.045-.38-.128-.416-.387 0 0 .304-2.56.498-2.606 0 0 .189.172.225.43l.271 1.946"/><path id="O" d="M163.836 291.27c2.027-.473 2.126-1.33 2.058-2.27 0 0 .86 2.189.962 2.936l.115.83c.222 1.607-.869 3.205-2.436 3.571l-2.837.663-.698-5.069 2.836-.661"/><path id="P" d="M161 289.469l1.504-.436c.694-.2 1.355.542 1.479 1.662.02.176.02.349.013.518l-2.715.787-.281-2.531"/><path id="Q" d="M164.864 292l.13.472c.036.13-.098.254-.3.277l-2.133.247c-.2.023-.393-.063-.43-.194l-.131-.47 2.864-.332"/><path id="R" d="M161 282.713l3.845-.7a.763.763 0 0 1 .886.625l.269 1.524-4.596.838-.404-2.287"/><path id="S" d="M156.019 283.974c.114.677.724 1.128 1.361 1.006l2.655-.505c.637-.122 1.061-.77.946-1.448-.114-.678-.724-1.13-1.361-1.007l-2.654.506c-.638.122-1.062.77-.947 1.448"/><path id="T" d="M163 284.191l2.038-.191.962 2.809-2.038.191-.962-2.809"/><path id="U" d="M161 282.437l2.523-.437.477 2.563-2.523.437-.477-2.563"/><path id="V" d="M163.98 287.197c-.124-.79-.783-1.315-1.472-1.174l-.645.133c-.689.141-.958.857-.834 1.647s.783 1.315 1.472 1.174l.455-.094c.69-.142 1.148-.896 1.024-1.686"/><path id="Y" d="M197 314h38v-3h-38z"/><path id="Z" d="M197 319h38v-3h-38z"/><path id="aa" d="M197 325h38v-3h-38z"/><path id="ab" d="M197 330h38v-3h-38z"/><path id="ac" d="M215 264.981c0 2.22 1.792 4.019 4 4.019l1-1.908c2.21 0 4-3.345 4-5.565v-1.507c0-2.22-1.79-4.02-4-4.02h-1c-2.208 0-4 1.8-4 4.02v4.961"/><path id="ad" d="M220.601 260.062a6.55 6.55 0 0 1 .79-.062 6.47 6.47 0 0 0 .053 1.012 6.454 6.454 0 0 0 6.556 5.555c-.05 3.148-2.376 5.894-5.59 6.364a6.46 6.46 0 0 1-7.346-5.492c-.499-3.554 1.98-6.857 5.537-7.377"/><path id="ae" d="M216.119 257c.005.386.035.781.097 1.184.41 2.699 1.99 4.748 3.717 5 .053 1.222.47 2.283.574 3.255.224 2.118 2.484 2.345 2.484 2.345.294 1.884-6.848 4.496-6.702 4.192.146-.305 1.67-2.523 2.167-4.56.347-1.419-.1-2.59-.62-3.398-.967-1.18-2.368-1.162-2.368-1.162a.457.457 0 0 1-.34-.155 3.079 3.079 0 0 1-.128-.879v-3.465c0-.96.44-1.812 1.119-2.357"/><path id="af" d="M210.309 292.91l-.016-.053.035-.041c.56-2.71 1.421-5.348 2.74-7.733.93-1.683 2.806-3.277 3.633-4.083 2.131 1.09 4.239.584 6.233 1.996.258.766.467 1.604.619 2.514.303 1.63.563 3.145.787 4.563 3.093.273 10.722.82 13.593 1.348 1.702.368 1.801.987 2.067 1.188-.151 2.6-2.404 4.069-3.768 6.152-.242.37-18.603.2-21.639.2-1.627-.014-5.747-.887-4.284-6.05"/><path id="ag" d="M236.74 296.34c.463-.553.722-1.243 1.067-1.858.269-1.182.265-1.977-.065-2.258-1.25-1.063-5.518 1.152-16.248 17.693-2.335 3.601-7.51 11.21-6.318 9.942 17.772-18.904 19.223-20.73 21.563-23.52"/><path id="ah" d="M215.184 319.478l2.006-3.04c.198-.3.51-.451.81-.437l-1.545 2.34c-.299.453-.226 1.063.164 1.361.132.101.283.15.437.158l-.461.698c-.3.453-.857.579-1.247.28-.39-.298-.463-.907-.164-1.36"/><path id="ai" d="M224.606 277l3.839-5.33c1.14-1.584.466-3.186-1.498-3.557l-11.114-2.105c-1.234-.137-3.211 1.448-2.77 3.333l2.355 6.156 9.188 1.503"/><path id="aj" d="M224.01 268.753c-.249 5.064 4.136 13.247 4.136 13.247s1.676.028 1.835-.849c.202-1.11-1.254-3.426-3.11-10.1-1.148-4.133-2.818-3.146-2.86-2.298"/><path id="ak" d="M213.48 266.088c-3.846 2.454-6.48 9.519-6.48 9.519s.865 1.687 1.623 1.348c.96-.43 2.14-2.458 5.476-7.292 2.064-2.992.026-3.985-.618-3.575"/><path id="al" d="M215.483 280.65c.014.829.857 2.166 1.471 2.153l5.966.197c.616-.012 2.095-1.032 2.08-1.86l-.057-2.785c-.014-.827-.525-1.488-1.14-1.476l-7.716-1.879c-.615.013-1.102.694-1.087 1.522l.483 4.129"/><path id="am" d="M222.98 282.891c-.007.086-.444.13-.978.099l-6.046-.351c-.534-.031-.962-.125-.956-.21l.02-.32c.006-.086.444-.13.978-.1l6.045.352c.534.03.962.125.957.21l-.02.32"/><path id="an" d="M213.33 268.982a4.27 4.27 0 0 1 .385-.982c5.045 3.578 8.614 2.06 11.188 1.453l.052.472c.095 1.778-.031 3.56.043 5.337.069 1.415-1.923 2.653-2.878 2.692-3.564.154-4.373-.058-7.802-.983-.92-.25-2.625-1.747-2.27-3.047.438-1.644.864-3.292 1.282-4.942"/><path id="ao" d="M222.175 268.001s2.32-.111 2.727 1.63c.407 1.74-.581 4.275-.581 4.275s-.59 3.228-.751 4.978c-.163 1.751.548 3.413.328 3.071-.044-.07-.57.01-1.405-.604-.837-.614-.373-3-.291-3.77.082-.77.492-4.555.4-5.181-.093-.629-.427-4.399-.427-4.399"/><path id="ap" d="M212.062 268.915s-.267-1.565.306-2.186c.842-.915 2.873-.79 3.53-.573a7.536 7.536 0 0 1 1.102.456s-2.298 1.045-2.21 6.406c.015.916.225 2.782.502 4.208.277 1.426.37 4.21.37 4.21s-1.372.32-1.435.545c-.063.227-.148-1.652-1.084-3.448-.934-1.794-1.08-9.618-1.08-9.618"/><path id="aq" d="M215 266.01c-1.257 1.194-2.019 2.216-1.827 8.42.03 1.005-.014 2.852.16 4.57a7.89 7.89 0 0 0-.249-.533c-.919-1.786-1.063-9.573-1.063-9.573s-.16-1.403.405-2.023c.599-.659 1.705-.929 2.574-.86"/><path id="ar" d="M235.226 297.46c.397-.598.52-1.315.765-1.964.056-1.183-.159-1.87-.5-2.165-1.552-1.338-4.965 1.139-10.491 11.919-2.786 5.433-4.88 10.133-8.646 13.04-.548.425-.827.84-1.004 1.332-.549 1.53-.305 3.435-.238 3.377 2.637-2.29 12.753-14.505 20.114-25.54"/><path id="as" d="M215.153 322.573l1.974-3.09c.194-.304.532-.475.873-.483l-1.52 2.38a.909.909 0 0 0 .32 1.304.994.994 0 0 0 .507.12l-.453.71c-.295.46-.913.622-1.383.362a.908.908 0 0 1-.318-1.303"/><path id="at" d="M205.35 278.436c-1.244-2.422 1.229-5.436 1.229-5.436s.837.073 1.164.518c.413.563.3 1.752-.135 4.469-.267 1.681-2.05.854-2.258.449"/><path id="au" d="M207.5 277s.856.045 1.625-2.544c.77-2.586.875-6.456.875-6.456l-2.668 5.907s-.849 2.28.168 3.093"/><path id="av" d="M209.311 270.516c.34-1.457 1.199-1.934 1.555-2.465.357-.532.83-1.042.823-1.04-.685.199-.812.665-1.063.86-.254.194-.14.154-.056-.372.047-.3.676-.712 1.043-1.028.32-.272.387-.471.387-.471s-.601.27-1.126.665c-.635.477-1.223 1.108-1.327 1.264-.19.286-.45 1.254-.522 1.967-.08.804.042 1.669.286.62"/><path id="aw" d="M209 269s.341-1.776.461-2.054c.083-.194.539-.946.539-.946s-.104.677-.28 1.004c-.176.328-.72 1.996-.72 1.996"/><path id="ax" d="M223 292.34h16v-.34h-16z"/><path id="ay" d="M229 292.52c0 .264.176.48.39.48h7.922c.215 0 .508-.17.772-.84l3.916-7.672c0-.334-.241-.533-.456-.48l-8.128.263c-.216.054-.392.23-.514.58l-3.902 7.668"/><path id="az" d="M231.04 292h-8.04c.285.158.762.262 1.302.262h13.396c.54 0 1.016-.104 1.302-.262h-7.96"/><path id="aA" d="M231.478 268.286h-.584v-.286h-3.894v2.406c0 .327.332.594.74.594h2.414c.408 0 .74-.267.74-.594v-.184h.584c.288 0 .522-.187.522-.418v-1.1c0-.23-.234-.418-.521-.418zm.09 1.518l-.083.066h-.591v-1.232h.59l.084.066z"/><path id="aB" d="M231.197 277.452c.625-1.404 1.685-2.853 1.49-3.689-.277-1.189-1.305-1.73-.953-2.537l.066-.271.182-.609c.002-.116-.066-.441.051-.319 1.017 1.098 1.974 2.384 1.967 2.686-.012.623-.34 4.059-.907 5.32-.64 1.424-2.74 1.312-1.896-.581"/><path id="aC" d="M232 272.969s.272.11.377-.082c.172-.314.213-1.023.215-1.276.003-.281-.222-1.611-.222-1.611s-.28.428-.191.964c.129.78-.179 2.005-.179 2.005"/><path id="aD" d="M233.091 279a28.65 28.65 0 0 1-2.091-.531c1.49-2.98 3-5.469 3-5.469l-.909 6"/><path id="aE" d="M232 270.565l-.244-2.344-.545-.221-.188.158-.023.252.056.154c-.077 0-.053.403.015.403l-.048.548c.046.191.263.158.357.568.094.41-.037.884.094.915.131.033.526-.433.526-.433"/><path id="aF" d="M231.99 278.153c-.053-.186-1.898-.25-2.11.082l-.216.242s-1.69 2.132.322 2.523c0 0 2.174-.09 2.005-2.847"/><filter id="j" width="92" height="63" x="126" y="248" filterUnits="userSpaceOnUse"><feOffset dy="2" in="SourceGraphic" result="FeOffset1064Out"/><feGaussianBlur in="FeOffset1064Out" result="FeGaussianBlur1065Out" stdDeviation="1.6 1.6"/></filter><filter id="X" width="92" height="71" x="167" y="286" filterUnits="userSpaceOnUse"><feOffset dy="2" in="SourceGraphic" result="FeOffset1269Out"/><feGaussianBlur in="FeOffset1269Out" result="FeGaussianBlur1270Out" stdDeviation="1.6 1.6"/></filter></defs><use fill="#c4d1e1" xlink:href="#a" transform="translate(-137 -238)"/><use fill="#c4d1e1" xlink:href="#b" transform="translate(-137 -238)"/><use fill="#acb9c9" xlink:href="#c" transform="translate(-137 -238)"/><use fill="#acb9c9" xlink:href="#d" transform="translate(-137 -238)"/><use fill="#cdd5d7" xlink:href="#e" transform="translate(-137 -238)"/><use fill="#cdd5d7" xlink:href="#f" transform="translate(-137 -238)"/><use fill="#cdd5d7" xlink:href="#g" transform="translate(-137 -238)"/><use fill="#e4eef3" xlink:href="#h" transform="translate(-137 -238)"/><g transform="translate(-137 -238)"><use xlink:href="#i" fill="none" filter="url(#j)"/><use fill="#fff" xlink:href="#i"/></g><use fill="#e4eef3" xlink:href="#k" transform="translate(-137 -238)"/><use fill="#e4eef3" xlink:href="#l" transform="translate(-137 -238)"/><use fill="#e4eef3" xlink:href="#m" transform="translate(-137 -238)"/><use fill="#975140" xlink:href="#n" transform="translate(-137 -238)"/><use fill="#e9d6b8" xlink:href="#o" transform="translate(-137 -238)"/><use fill="#e9d6b8" xlink:href="#p" transform="translate(-137 -238)"/><use fill="#e9d6b8" xlink:href="#q" transform="translate(-137 -238)"/><use fill="#e9d6b8" xlink:href="#r" transform="translate(-137 -238)"/><use fill="#975140" xlink:href="#s" transform="translate(-137 -238)"/><use fill="#e9d6b8" xlink:href="#t" transform="translate(-137 -238)"/><use fill="#e9d6b8" xlink:href="#u" transform="translate(-137 -238)"/><use fill="#e9d6b8" xlink:href="#v" transform="translate(-137 -238)"/><use fill="#e9d6b8" xlink:href="#w" transform="translate(-137 -238)"/><use fill="#e9d6b8" xlink:href="#x" transform="translate(-137 -238)"/><use fill="#258f98" xlink:href="#y" transform="translate(-137 -238)"/><use fill="#163f59" xlink:href="#z" transform="translate(-137 -238)"/><use fill="#194866" xlink:href="#A" transform="translate(-137 -238)"/><use fill="#194866" xlink:href="#B" transform="translate(-137 -238)"/><use fill="#163f59" xlink:href="#C" transform="translate(-137 -238)"/><use fill="#3bb3bd" xlink:href="#D" transform="translate(-137 -238)"/><use fill="#258f98" xlink:href="#E" transform="translate(-137 -238)"/><use fill="#161711" xlink:href="#F" transform="translate(-137 -238)"/><use fill="#e9d6b8" xlink:href="#G" transform="translate(-137 -238)"/><use fill="#258f98" xlink:href="#H" transform="translate(-137 -238)"/><use fill="#e9d6b8" xlink:href="#I" transform="translate(-137 -238)"/><use fill="#163f59" xlink:href="#J" transform="translate(-137 -238)"/><use fill="#163f59" xlink:href="#K" transform="translate(-137 -238)"/><use fill="#e9d6b8" xlink:href="#L" transform="translate(-137 -238)"/><use fill="#e9d6b8" xlink:href="#M" transform="translate(-137 -238)"/><use fill="#e9d6b8" xlink:href="#N" transform="translate(-137 -238)"/><use fill="#163f59" xlink:href="#O" transform="translate(-137 -238)"/><use fill="#163f59" xlink:href="#P" transform="translate(-137 -238)"/><use fill="#e9d6b8" xlink:href="#Q" transform="translate(-137 -238)"/><use fill="#163f59" xlink:href="#R" transform="translate(-137 -238)"/><use fill="#163f59" xlink:href="#S" transform="translate(-137 -238)"/><use fill="#163f59" xlink:href="#T" transform="translate(-137 -238)"/><use fill="#163f59" xlink:href="#U" transform="translate(-137 -238)"/><use fill="#e9d6b8" xlink:href="#V" transform="translate(-137 -238)"/><g transform="translate(-137 -238)"><use xlink:href="#W" fill="none" filter="url(#X)"/><use fill="#fff" xlink:href="#W"/></g><use fill="#e4eef3" xlink:href="#Y" transform="translate(-137 -238)"/><use fill="#e4eef3" xlink:href="#Z" transform="translate(-137 -238)"/><use fill="#e4eef3" xlink:href="#aa" transform="translate(-137 -238)"/><use fill="#e4eef3" xlink:href="#ab" transform="translate(-137 -238)"/><use fill="#ad5c49" xlink:href="#ac" transform="translate(-137 -238)"/><use fill="#ad5c49" xlink:href="#ad" transform="translate(-137 -238)"/><use fill="#e9d6b8" xlink:href="#ae" transform="translate(-137 -238)"/><use fill="#194866" xlink:href="#af" transform="translate(-137 -238)"/><use fill="#e2c59c" xlink:href="#ag" transform="translate(-137 -238)"/><use fill="#163f59" xlink:href="#ah" transform="translate(-137 -238)"/><use fill="#e9d6b8" xlink:href="#ai" transform="translate(-137 -238)"/><use fill="#258f98" xlink:href="#aj" transform="translate(-137 -238)"/><use fill="#258f98" xlink:href="#ak" transform="translate(-137 -238)"/><use fill="#3bb3bd" xlink:href="#al" transform="translate(-137 -238)"/><use fill="#258f98" xlink:href="#am" transform="translate(-137 -238)"/><use fill="#3bb3bd" xlink:href="#an" transform="translate(-137 -238)"/><use fill="#258f98" xlink:href="#ao" transform="translate(-137 -238)"/><use fill="#258f98" xlink:href="#ap" transform="translate(-137 -238)"/><use fill="#258f98" xlink:href="#aq" transform="translate(-137 -238)"/><use fill="#e9d6b8" xlink:href="#ar" transform="translate(-137 -238)"/><use fill="#194866" xlink:href="#as" transform="translate(-137 -238)"/><use fill="#258f98" xlink:href="#at" transform="translate(-137 -238)"/><use fill="#e9d6b8" xlink:href="#au" transform="translate(-137 -238)"/><use fill="#e9d6b8" xlink:href="#av" transform="translate(-137 -238)"/><use fill="#e9d6b8" xlink:href="#aw" transform="translate(-137 -238)"/><use fill="#cdd5d7" xlink:href="#ax" transform="translate(-137 -238)"/><use fill="#cdd5d7" xlink:href="#ay" transform="translate(-137 -238)"/><use fill="#b7bec0" xlink:href="#az" transform="translate(-137 -238)"/><use fill="#163f59" xlink:href="#aA" transform="translate(-137 -238)"/><use fill="#e9d6b8" xlink:href="#aB" transform="translate(-137 -238)"/><use fill="#e9d6b8" xlink:href="#aC" transform="translate(-137 -238)"/><use fill="#e9d6b8" xlink:href="#aD" transform="translate(-137 -238)"/><use fill="#e9d6b8" xlink:href="#aE" transform="translate(-137 -238)"/><use fill="#258f98" xlink:href="#aF" transform="translate(-137 -238)"/></svg>